<?xml version="1.0" standalone="no"?>
<!DOCTYPE svg PUBLIC "-//W3C//DTD SVG 20010904//EN"
 "http://www.w3.org/TR/2001/REC-SVG-20010904/DTD/svg10.dtd">
<svg version="1.0" xmlns="http://www.w3.org/2000/svg"
 width="512.000000pt" height="512.000000pt" viewBox="0 0 512.000000 512.000000"
 preserveAspectRatio="xMidYMid meet">
<metadata>
Created by potrace 1.14, written by Peter Selinger 2001-2017
</metadata>
<g transform="translate(0.000000,512.000000) scale(0.100000,-0.100000)"
fill="#000000" stroke="none">
<path d="M0 2560 l0 -2560 2560 0 2560 0 0 2560 0 2560 -2560 0 -2560 0 0
-2560z m2785 1636 c8 -8 42 -17 76 -21 34 -4 101 -20 148 -36 47 -16 101 -34
120 -40 49 -15 235 -114 306 -161 364 -246 633 -657 697 -1066 7 -43 17 -76
25 -79 19 -8 19 -458 0 -466 -8 -3 -18 -36 -25 -79 -77 -494 -437 -962 -912
-1186 -119 -56 -275 -106 -365 -117 -31 -4 -62 -14 -70 -21 -20 -20 -430 -20
-450 0 -8 7 -37 16 -66 20 -91 12 -266 68 -369 118 -304 147 -547 369 -714
652 -98 166 -171 363 -198 534 -7 43 -17 76 -25 79 -19 8 -19 458 0 466 8 3
18 36 25 79 12 76 42 194 60 238 5 14 20 50 32 80 35 88 60 139 116 231 234
392 632 674 1064 753 41 8 76 19 78 25 6 18 429 15 447 -3z"/>
<path d="M2285 4035 c-196 -42 -350 -104 -503 -202 -173 -110 -365 -308 -461
-473 -18 -30 -36 -62 -41 -70 -57 -91 -133 -309 -162 -465 -27 -146 -28 -391
-3 -520 18 -91 51 -215 80 -293 25 -70 120 -247 177 -329 103 -150 285 -319
449 -419 76 -46 90 -36 46 32 -100 156 -142 297 -141 479 1 152 25 252 95 393
42 84 68 121 136 192 173 182 331 254 593 270 189 12 309 54 438 155 112 88
206 232 247 380 28 99 27 274 -2 370 -30 100 -49 141 -101 218 -92 138 -234
241 -397 287 -101 29 -300 26 -450 -5z m387 -429 c102 -45 177 -171 165 -279
-15 -145 -142 -267 -277 -267 -96 0 -208 74 -251 167 -32 68 -32 181 -1 240
76 145 224 201 364 139z"/>
<path d="M2500 2054 c-109 -42 -167 -95 -200 -184 -68 -182 65 -379 256 -380
148 0 268 111 281 261 11 111 -57 229 -159 279 -42 21 -148 35 -178 24z"/>
</g>
</svg>
